<?xml version="1.0" encoding="UTF-8"?>
<!DOCTYPE svg PUBLIC "-//W3C//DTD SVG 1.1//EN" "http://www.w3.org/Graphics/SVG/1.1/DTD/svg11.dtd">
<!-- Creator: CorelDRAW -->
<svg xmlns="http://www.w3.org/2000/svg" xml:space="preserve" width="1.16667in" height="1.16667in" version="1.1" style="shape-rendering:geometricPrecision; text-rendering:geometricPrecision; image-rendering:optimizeQuality; fill-rule:evenodd; clip-rule:evenodd"
viewBox="0 0 1166.66 1166.66"
 xmlns:xlink="http://www.w3.org/1999/xlink"
 xmlns:xodm="http://www.corel.com/coreldraw/odm/2003">
 <defs>
  <style type="text/css">
   <![CDATA[
    .fil0 {fill:none}
    .fil1 {fill:#2322C3;fill-rule:nonzero}
    .fil2 {fill:#78D75A;fill-rule:nonzero}
   ]]>
  </style>
 </defs>
 <g id="Layer_x0020_1">
  <metadata id="CorelCorpID_0Corel-Layer"/>
  <g id="_2259749737424">
   <rect class="fil0" x="-0" y="-0" width="1166.66" height="1166.66"/>
   <g>
    <path class="fil1" d="M583.33 1132.33c-151.59,0 -288.85,-61.45 -388.2,-160.81 -99.35,-99.35 -160.81,-236.61 -160.81,-388.2 0,-151.59 61.45,-288.85 160.81,-388.2 99.35,-99.35 236.61,-160.81 388.2,-160.81 151.59,0 288.85,61.45 388.2,160.81 99.35,99.35 160.81,236.61 160.81,388.2 0,151.59 -61.45,288.85 -160.81,388.2 -99.35,99.35 -236.61,160.81 -388.2,160.81zm-280.99 -268.02c71.91,71.91 171.25,116.38 280.99,116.38 109.74,0 209.08,-44.47 280.99,-116.38 71.91,-71.91 116.38,-171.25 116.38,-280.99 0,-109.74 -44.47,-209.08 -116.38,-280.99 -71.91,-71.91 -171.25,-116.38 -280.99,-116.38 -109.74,0 -209.08,44.47 -280.99,116.38 -71.91,71.91 -116.38,171.25 -116.38,280.99 0,109.74 44.47,209.08 116.38,280.99z"/>
    <path class="fil2" d="M388.02 237.15c-36.48,20.44 -82.62,7.45 -103.07,-29.02 -20.44,-36.48 -7.45,-82.62 29.02,-103.07 40.7,-22.93 84.51,-40.56 130.3,-52.57 45.76,-12.01 92.49,-18.16 139.05,-18.16 151.59,0 288.85,61.45 388.2,160.81 99.35,99.35 160.81,236.61 160.81,388.2 0,124.11 -41.77,240.57 -113.56,334.07 -71.89,93.63 -173.7,164.14 -293.69,196.22 -40.4,10.8 -81.91,-13.2 -92.7,-53.61 -10.8,-40.4 13.2,-81.91 53.61,-92.7 87.01,-23.26 160.68,-74.18 212.54,-141.72 51.94,-67.66 82.17,-152.1 82.17,-242.26 0,-109.74 -44.47,-209.08 -116.38,-280.99 -71.91,-71.91 -171.25,-116.38 -280.99,-116.38 -34.83,0 -68.82,4.35 -101.14,12.83 -32.3,8.48 -63.95,21.33 -94.17,38.36z"/>
   </g>
  </g>
 </g>
</svg>
